# xmcd CD database file
#
# Track frame offsets:
#	150
#	30174
#	41403
#	75981
#	87248
#	96217
#	123040
#	132819
#	161780
#
# Disc length: 2429 seconds
#
# Revision: 0
# Processed by: cddbd v1.5.2PL0 Copyright (c) Steve Scherf et al.
# Submitted via: CDex 1.51
#
DISCID=5a097b09
DTITLE=Dave Bruebeck - Ol'Man River
DYEAR=1959
DGENRE=Jazz
TTITLE0=Georgia On My Mind
TTITLE1=Ol' Man River
TTITLE2=The Lonesome Road
TTITLE3=Short'nin' Bread
TTITLE4=Camptown Races
TTITLE5=Swanee River
TTITLE6=Samptown Races
TTITLE7=Gone With The Wind
TTITLE8=Basin Street Blues
EXTD=YEAR: 1959
EXTT0=
EXTT1=
EXTT2=
EXTT3=
EXTT4=
EXTT5=
EXTT6=
EXTT7=
EXTT8=
PLAYORDER=
